<?xml version="1.0" encoding="utf-8"?>
<!-- Generator: Adobe Illustrator 16.2.0, SVG Export Plug-In . SVG Version: 6.00 Build 0)  -->
<!DOCTYPE svg PUBLIC "-//W3C//DTD SVG 1.1//EN" "http://www.w3.org/Graphics/SVG/1.1/DTD/svg11.dtd">
<svg version="1.1" id="图层_1" xmlns="http://www.w3.org/2000/svg" xmlns:xlink="http://www.w3.org/1999/xlink" x="0px" y="0px"
	 width="321.5px" height="267px" viewBox="190.5 233.5 321.5 267" enable-background="new 190.5 233.5 321.5 267"
	 xml:space="preserve">
<g id="Layer_1">
	<path d="M495.526,248.122H206.973c-8.545,0-15.472,6.209-15.472,13.869v162.27c0,7.658,6.927,13.87,15.472,13.87h107.918v31.425
		h-41.994c-7.891,0-14.312,5.758-14.312,12.829c0,7.075,6.421,12.83,14.312,12.83h156.707c7.891,0,14.313-5.755,14.313-12.83
		c0-7.071-6.422-12.829-14.313-12.829H387.61v-31.425h107.916c8.546,0,15.473-6.212,15.473-13.87v-162.27
		C510.999,254.331,504.072,248.122,495.526,248.122z M487.791,417.327H214.709v-148.4h273.082V417.327L487.791,417.327z"/>
	<path d="M222.724,296.43h147.829c1.423,0,2.575-0.399,2.575-0.894v-9.817c0-0.493-1.152-0.893-2.575-0.893H222.724
		c-1.423,0-2.574,0.399-2.574,0.893v9.817C220.15,296.031,221.301,296.43,222.724,296.43z"/>
	<path d="M466.184,284.308h-74.876c-2.532,0-4.589,0.257-4.589,0.571v10.979c0,0.314,2.055,0.571,4.589,0.571h74.876
		c2.533,0,4.589-0.257,4.589-0.571v-10.979C470.772,284.565,468.718,284.308,466.184,284.308z"/>
	<path d="M323.214,313.527H222.27c-1.171,0-2.12,0.287-2.12,0.645v12.438c0,0.359,0.949,0.648,2.12,0.648h100.944
		c1.172,0,2.121-0.289,2.121-0.648v-12.438C325.335,313.814,324.386,313.527,323.214,313.527z M318.192,325.628h-90.901v-10.478
		h90.901V325.628L318.192,325.628z"/>
	<path d="M299.615,335.623h-74.876c-2.535,0-4.589,0.256-4.589,0.571v10.979c0,0.315,2.053,0.571,4.589,0.571h74.876
		c2.532,0,4.587-0.256,4.587-0.571v-10.979C304.202,335.879,302.147,335.623,299.615,335.623z"/>
	<path d="M430.852,335.623h-74.876c-2.535,0-4.591,0.256-4.591,0.571v10.979c0,0.315,2.054,0.571,4.591,0.571h74.876
		c2.532,0,4.588-0.256,4.588-0.571v-10.979C435.439,335.879,433.384,335.623,430.852,335.623z"/>
	<path d="M430.852,314.33h-74.876c-2.535,0-4.591,0.255-4.591,0.571v10.98c0,0.313,2.054,0.569,4.591,0.569h74.876
		c2.532,0,4.588-0.256,4.588-0.569v-10.98C435.439,314.585,433.384,314.33,430.852,314.33z"/>
	<path d="M299.615,377.564h-74.876c-2.535,0-4.589,0.254-4.589,0.567v10.982c0,0.315,2.053,0.57,4.589,0.57h74.876
		c2.532,0,4.587-0.255,4.587-0.57v-10.982C304.202,377.818,302.147,377.564,299.615,377.564z"/>
	<path d="M299.615,359.383h-74.876c-2.535,0-4.589,0.255-4.589,0.571v10.979c0,0.315,2.053,0.569,4.589,0.569h74.876
		c2.532,0,4.587-0.254,4.587-0.569v-10.979C304.202,359.638,302.147,359.383,299.615,359.383z"/>
	<path d="M430.852,353.323h-74.876c-2.535,0-4.591,0.255-4.591,0.571v10.979c0,0.313,2.054,0.57,4.591,0.57h74.876
		c2.532,0,4.588-0.257,4.588-0.57v-10.979C435.439,353.578,433.384,353.323,430.852,353.323z"/>
	<path d="M430.852,386.4h-74.876c-2.535,0-4.591,0.253-4.591,0.567v10.982c0,0.314,2.054,0.567,4.591,0.567h74.876
		c2.532,0,4.588-0.253,4.588-0.567v-10.982C435.439,386.653,433.384,386.4,430.852,386.4z"/>
	<path d="M430.852,371.502h-74.876c-2.535,0-4.591,0.257-4.591,0.572v10.978c0,0.316,2.054,0.571,4.591,0.571h74.876
		c2.532,0,4.588-0.255,4.588-0.571v-10.978C435.439,371.759,433.384,371.502,430.852,371.502z"/>
	<path d="M299.615,395.745h-74.876c-2.535,0-4.589,0.253-4.589,0.57v10.979c0,0.313,2.053,0.569,4.589,0.569h74.876
		c2.532,0,4.587-0.256,4.587-0.569v-10.979C304.202,395.998,302.147,395.745,299.615,395.745z"/>
	<path d="M430.852,401.804h-74.876c-2.535,0-4.591,0.257-4.591,0.572v10.979c0,0.313,2.054,0.57,4.591,0.57h74.876
		c2.532,0,4.588-0.257,4.588-0.57v-10.979C435.439,402.061,433.384,401.804,430.852,401.804z"/>
</g>
<g id="图层_2" display="none">
</g>
</svg>
