<?xml version="1.0" encoding="utf-8"?>
<!-- Generator: Adobe Illustrator 16.2.0, SVG Export Plug-In . SVG Version: 6.00 Build 0)  -->
<!DOCTYPE svg PUBLIC "-//W3C//DTD SVG 1.1//EN" "http://www.w3.org/Graphics/SVG/1.1/DTD/svg11.dtd">
<svg version="1.1" id="图层_1" xmlns="http://www.w3.org/2000/svg" xmlns:xlink="http://www.w3.org/1999/xlink" x="0px" y="0px"
	 width="800px" height="400px" viewBox="0 0 800 400" enable-background="new 0 0 800 400" xml:space="preserve">
<path fill="none" stroke="#E59C9C" stroke-miterlimit="10" d="M609.439,159.285c-6.984-14.521,9.282-99.337-18.532-32.45
	C577.685,158.632,568.391,198.357,515.41,252s-150.331,62.914-234.437,81.457s-170.199,28.477-261.589,28.477"/>
<path fill="none" stroke="#9CDEE2" stroke-miterlimit="10" d="M19.384,353.986c111.92-3.311,12.583,18.544,98.675,15.232
	s34.437-23.18,100-33.775s25.166,16.558,101.987,5.299s-7.285-15.232,58.94-41.723s45.695,25.828,126.49-11.258
	c46.822-21.492-4.602-19.194,31.822-66.876s28.443,0.65,43.675-33.787s-18.543-37.086,0-61.589s28.466-31.788-39.073,11.921"/>
<path fill="none" stroke="#9DE0BD" stroke-miterlimit="10" d="M19.384,366.569c50.331,0,56.745-13.468,125.166-21.854
	s-6.622,17.882,74.834,10.928s103.974-34.106,158.94-48.676s36.424,12.582,92.715-12.583S477,285.112,515.41,252
	s21.854-6.622,48.345-33.112s-27.152-8.609,0-45.033s39.439-37.586,43.047-51.656c13.244-51.656-4.646,28.477,2.638,37.086"/>
<path fill="none" stroke="#DBDD9E" stroke-miterlimit="10" d="M19.384,356.636c52.806-0.677,57.511,1.76,107.285-4.636
	s53.642,5.96,105.96-3.974s-30.754-7.108,49.007-23.841s121.192-20.53,162.914-39.735s55.628,9.665,98.013-41.856
	c42.385-51.521,27.969-79.026,46.002-109.972c38.104-65.39,12.938-12.796-42.81,3.152"/>
<path fill="none" stroke="#DBA49E" stroke-miterlimit="10" d="M19.384,372.529c107.285,0.663,79.47-15.232,174.172-36.424
	s124.503,0,192.053-13.907s126.025-30.388,155.629-71.522s42.384-84.217,60.265-130.851s1.62,35.486,7.378,43.433"/>
<path fill="none" stroke="#E57A7A" stroke-miterlimit="10" d="M19.384,348.026c88.079,0,113.908,23.841,190.729,13.907
	s127.551-16.438,183.443-33.112s54.237-43.912,92.715-78.146s20.928-10.861,53.643-53.643s30.69-63.791,53.643-87.417
	c22.517-23.179-30.464,19.868-51.656,27.815"/>
<path fill="none" stroke="#9DA5E0" stroke-miterlimit="10" d="M19.384,369.562c94.04-2.992,47.939,8.403,171.652-12.857
	s28.563-14.636,129.672-37.154s141.473-2.043,183.444-41.722s14.572-39.325,66.227-125.623s28.643-49.369,38.502,11.053"/>
<path fill="none" stroke="#9CE2A2" stroke-miterlimit="10" d="M19.384,351.338c155.962-6.739,311.326-25.148,393.377-64.9
	s147.93-51.484,169.148-114.35c21.219-62.867,23.838-88.3,26.971-8.829"/>
</svg>
