<!--邓燊制作，与原版有出入，仅供个人非商业使用，如果校方采纳此logo，可以在告知我以后免费使用--><svg xmlns="http://www.w3.org/2000/svg" version="1.1" x="0px" y="0px" width="640px" height="640px" viewBox="0 0 640 640" enable-background="new 0 0 640 640" xml:space="preserve"><g id="&#22270;&#23618;_1" display="none"><image display="inline" overflow="visible" width="600" height="600" transform="matrix(1 0 0 1 22 20)"/></g><g id="&#22270;&#23618;_1_x5F_&#22797;&#21046;" display="none"><image display="inline" overflow="visible" width="600" height="600" transform="matrix(1 0 0 1 20 24)"/></g><g id="&#22270;&#23618;_8" display="none"/><g id="&#22270;&#23618;_11" display="none"/><g id="&#22270;&#23618;_7" display="none"/><g id="&#22270;&#23618;_1_x5F_&#22797;&#21046;_x5F_2" display="none"><image display="inline" overflow="visible" width="600" height="600" transform="matrix(1 0 0 1 22 20)"/></g><g id="&#22270;&#23618;_3" display="none"/><g id="&#22270;&#23618;_12" display="none"/><g id="&#22270;&#23618;_5" display="none"/><g id="&#22270;&#23618;_6" display="none"/><g id="&#22270;&#23618;_9"><path fill="#243B2B" d="M278.06 482.66h0.89v13.56c0 0.8 0.1 1.3 0.29 1.5 0.19 0.2 0.64 0.3 1.34 0.3h1.15V499h-7.73v-0.98h1.27c0.66 0 1.1-0.11 1.34-0.32 0.24-0.22 0.36-0.71 0.36-1.48v-11.16h-2.98v-1.01C275.61 483.84 276.96 483.38 278.06 482.66z"/><path fill="#243B2B" d="M309.53 489.93c1.36 0.53 2.41 1.15 3.14 1.86 0.74 0.71 1.1 1.62 1.1 2.72 0 1.34-0.57 2.48-1.72 3.4s-2.62 1.38-4.43 1.38c-1.74 0-3.19-0.44-4.33-1.31 -1.14-0.87-1.72-1.93-1.72-3.18 0-0.91 0.34-1.74 1.03-2.47s1.7-1.34 3.02-1.8c-1.07-0.48-1.87-1.02-2.4-1.62 -0.53-0.6-0.79-1.38-0.79-2.34 0-1.25 0.51-2.26 1.54-3.04 1.02-0.78 2.32-1.16 3.89-1.16 1.46 0 2.66 0.38 3.61 1.13 0.95 0.75 1.43 1.64 1.43 2.66C312.91 487.74 311.78 489 309.53 489.93zM306.79 491.01c-1.06 0.48-1.88 1.06-2.47 1.73 -0.59 0.67-0.89 1.35-0.89 2.04 0 0.91 0.41 1.71 1.22 2.39 0.82 0.68 1.82 1.02 3.02 1.02 1.14 0 2.12-0.33 2.96-1 0.84-0.66 1.26-1.41 1.26-2.24 0-1.28-1.07-2.34-3.22-3.19L306.79 491.01zM308.45 489.5c0.66-0.43 1.25-0.91 1.78-1.44 0.53-0.53 0.79-1.15 0.79-1.87 0-0.72-0.32-1.35-0.95-1.9 -0.63-0.54-1.44-0.82-2.44-0.82 -0.94 0-1.74 0.27-2.4 0.8 -0.66 0.54-0.98 1.16-0.98 1.86 0 0.66 0.25 1.21 0.76 1.66 0.5 0.45 1.2 0.84 2.08 1.18L308.45 489.5z"/><path fill="#243B2B" d="M333.24 499.29v-1.1c2.8-0.02 4.85-0.6 6.14-1.76s2-2.97 2.11-5.44c-0.58 0.85-1.22 1.47-1.92 1.87 -0.7 0.4-1.57 0.6-2.59 0.6 -1.62 0-2.93-0.51-3.95-1.52 -1.02-1.02-1.52-2.32-1.52-3.9 0-1.73 0.56-3.1 1.67-4.13 1.11-1.02 2.56-1.54 4.36-1.54 2.02 0 3.57 0.65 4.67 1.94 1.1 1.3 1.64 3.14 1.64 5.54 0 2.16-0.48 4-1.44 5.53 -0.96 1.53-2.18 2.56-3.67 3.1 -1.49 0.54-3.02 0.8-4.58 0.8H333.24zM333.84 487.94c0 1.26 0.35 2.29 1.04 3.08 0.7 0.79 1.57 1.19 2.63 1.19 1.1 0 2.02-0.42 2.76-1.26 0.74-0.84 1.1-1.87 1.1-3.08 0-1.26-0.36-2.32-1.08-3.17 -0.72-0.85-1.62-1.27-2.69-1.27 -1.1 0-2.01 0.41-2.71 1.24S333.84 486.58 333.84 487.94z"/><path fill="#243B2B" d="M364.22 487.02l-1.13-0.17c0.21-1.47 0.79-2.59 1.74-3.35 0.95-0.76 2.16-1.14 3.61-1.14 1.5 0 2.74 0.39 3.7 1.16s1.44 1.73 1.44 2.87c0 0.85-0.3 1.6-0.9 2.24 -0.6 0.65-1.46 1.13-2.58 1.45 1.36 0.19 2.4 0.69 3.12 1.5 0.72 0.81 1.08 1.75 1.08 2.82 0 1.31-0.58 2.45-1.75 3.42 -1.17 0.97-2.62 1.45-4.34 1.45 -1.74 0-3.18-0.44-4.32-1.32s-1.7-1.74-1.7-2.57c0-0.38 0.14-0.66 0.43-0.84 0.29-0.18 0.54-0.26 0.77-0.26 0.53 0 0.94 0.5 1.25 1.49 0.22 0.78 0.63 1.38 1.22 1.8s1.32 0.62 2.18 0.62c1.17 0 2.13-0.38 2.88-1.13 0.75-0.75 1.13-1.7 1.13-2.83 0-1.09-0.38-1.94-1.14-2.57 -0.76-0.62-1.83-0.94-3.2-0.94h-1.1v-1.13h0.7c2.69 0 4.03-0.98 4.03-2.93 0-0.86-0.3-1.56-0.89-2.1s-1.39-0.8-2.4-0.8C365.93 483.78 364.65 484.86 364.22 487.02z"/><path fill="#243B2B" d="M320 116c-111.57 0-202.49 90.03-203.97 201.26 2.91 0.47 5.6 0.56 8 0.3C125.34 210.61 212.74 124 320 124V116z"/><path fill="#243B2B" d="M320 516c-46.8 0-90.4-17.43-124.54-46H182.8c17.45 15.98 37.22 28.74 58.91 37.96C266.74 518.6 293.08 524 320 524V516z"/><path fill="#243B2B" d="M320 535c-60.26 0-114.79-24.93-153.87-65H96l-12-21h8.33L104 425h3c0 0-0.17-27.76 0-49.18 0-24.15-0.03 1.18 0-28.15 -26.33-16.03-26.67-45.67-34.97-60 11.67 13.78 23.11 22.03 33.06 26.31C108.29 198.2 203.47 105 320 105V45c-73.46 0-142.51 28.6-194.45 80.55C73.6 177.49 45 246.54 45 320s28.6 142.51 80.55 194.46C177.49 566.4 246.54 595 320 595V535z"/><path fill="#2B1D5B" d="M227.51 302H173c0 0-2.67-1 3 5 7.19 0 25.49 0 46.72 0C224.41 305.58 226.04 303.92 227.51 302z"/><path fill="#2B1D5B" d="M320 307v-5h-84.72c-0.48 1.54-1.05 3.25-1.69 5C274.13 307 320 307 320 307z"/><path fill="#2B1D5B" d="M180 311l3 2h30.17c1.15-0.56 2.43-1.23 3.77-2H180z"/><path fill="#2B1D5B" d="M320 313v-2h-87.99c-0.29 0.68-0.6 1.35-0.91 2H320z"/><path fill="#2B1D5B" d="M320 227h-7v2h-24v-5h-12v10l3 5.33V252c0 0-28 2.33-36.33-9.67s28 58.33-36.33 24C204.67 261 217.67 297 234.67 291c22.67-15.67 11.85-8.54 25.33-12.33 11 0.67 60 0.33 60 0.33V227z"/><path fill="#2B1D5B" d="M320 177c0 0 0 0-7.37 0 -5.04 13.86 6.04 10.29 3.04 11.94C310 195.87 314 223 314 223h6"/><path fill="#2B1D5B" d="M212 340c0 0 24.33-31.81 21.33-40.73 -24.33 25.42-57.33 32.12-76-20.69 -13.33 26.74-35 67.72-77 20.19 14.67 35.65 17.5 39.16 34.67 46.9 46 0 174.14 0.59 201 0V349v1H119v9h91v2h-91v67h-10l-10.33 18H209l13-26h-9l0.33-3H320v-34h-14v32h-3v-34h17v-2h-19v36h-29v-38l11-12h37v-4h-48v-2h44.33H320v-10 -3.33V340H212zM144 379h-13v-7h13V379zM168 379h-13v-7h13V379zM192 379h-13v-7h13V379zM211 415h-5v-50h5V415zM255 415h-37v-37l10-12.83V365h16v0.17L255 377V415zM255 361h-11 -16 -10v-2h36.67H255V361zM266 361v54h-5v-54 -2h5V361z"/><polygon fill="#2B1D5B" points="320 457 95 457 92 451 320 451 "/><!--Made by Shen DENG dengshendengshen@gmail.com--><polygon fill="#2B1D5B" points="320 465 99 465 96 460 320 460 "/><polygon fill="#2B1D5B" points="320 472 198 471 195 467 320 467 "/><path fill="#2B1D5B" d="M317 286c0 1.1-0.9 2-2 2h-14c-1.1 0-2-0.9-2-2l0 0c0-1.1 0.9-2 2-2h14C316.1 284 317 284.9 317 286L317 286z"/><path fill="#2B1D5B" d="M290 286c0 1.1-0.9 2-2 2h-14c-1.1 0-2-0.9-2-2l0 0c0-1.1 0.9-2 2-2h14C289.1 284 290 284.9 290 286L290 286z"/><path fill="#2B1D5B" d="M263.49 287c0.37 1.04-0.18 2.18-1.22 2.55l-13.2 4.66c-1.04 0.37-2.18-0.18-2.55-1.22l0 0c-0.37-1.04 0.18-2.18 1.22-2.55l13.2-4.66C261.98 285.42 263.12 285.96 263.49 287L263.49 287z"/><rect x="308" y="315" fill="#2B1D5B" width="6" height="24"/><rect x="299" y="315" fill="#2B1D5B" width="6" height="24"/><rect x="290" y="315" fill="#2B1D5B" width="6" height="24"/><rect x="281" y="315" fill="#2B1D5B" width="6" height="24"/><rect x="272" y="315" fill="#2B1D5B" width="6" height="24"/><rect x="264" y="315" fill="#2B1D5B" width="6" height="24"/><rect x="255" y="315" fill="#2B1D5B" width="6" height="24"/><rect x="246" y="315" fill="#2B1D5B" width="6" height="24"/><rect x="237" y="315" fill="#2B1D5B" width="6" height="24"/><path fill="#2B1D5B" d="M228 318.79V339h6v-24h-4.09C229.28 316.3 228.64 317.56 228 318.79z"/><path fill="#2B1D5B" d="M219 339h6v-14.72c-2.27 3.97-4.4 7.3-6 9.61V339z"/><rect x="317" y="315" fill="#2B1D5B" width="3" height="24"/><path fill="#243B2B" d="M320 116c111.57 0 202.49 90.03 203.96 201.26 -2.91 0.47-5.6 0.56-8 0.3C514.66 210.61 427.26 124 320 124V116z"/><path fill="#243B2B" d="M320 516c46.8 0 90.4-17.43 124.54-46h12.65c-17.45 15.98-37.22 28.74-58.91 37.96C373.26 518.6 346.92 524 320 524V516z"/><path fill="#243B2B" d="M320 535c60.26 0 114.79-24.93 153.87-65H544l12-21h-8.33L536 425h-3c0 0 0.17-27.76 0-49.18 0-24.15 0.03 1.18 0-28.15 26.33-16.03 26.67-45.67 34.97-60 -11.67 13.78-23.11 22.03-33.06 26.31C531.71 198.2 436.54 105 320 105V45c73.46 0 142.51 28.6 194.45 80.55C566.39 177.49 595 246.54 595 320s-28.61 142.51-80.55 194.46C462.51 566.4 393.46 595 320 595V535z"/><path fill="#2B1D5B" d="M412.49 302H467c0 0 2.67-1-3 5 -7.19 0-25.49 0-46.72 0C415.59 305.58 413.96 303.92 412.49 302z"/><path fill="#2B1D5B" d="M320 307v-5h84.72c0.48 1.54 1.05 3.25 1.69 5C365.87 307 320 307 320 307z"/><path fill="#2B1D5B" d="M460 311l-3 2h-30.17c-1.15-0.56-2.43-1.23-3.77-2H460z"/><path fill="#2B1D5B" d="M320 313v-2h87.99c0.29 0.68 0.6 1.35 0.91 2H320z"/><path fill="#2B1D5B" d="M320 227h7v2h24v-5h12v10l-3 5.33V252c0 0 28 2.33 36.33-9.67 8.33-12-28 58.33 36.33 24C435.33 261 422.33 297 405.33 291c-22.67-15.67-11.85-8.54-25.33-12.33 -11 0.67-60 0.33-60 0.33V227z"/><path fill="#2B1D5B" d="M320 177c0 0 0 0 7.37 0 5.04 13.86-6.04 10.29-3.04 11.94C330 195.87 326 223 326 223h-6"/><path fill="#2B1D5B" d="M320 340v5.67V349v10h3.67H368v2h-48v4h37l11 12v38h-29v-36h-19v2h17v34h-3v-32h-14v34h106.67l0.33 3h-9l13 26h110.33L531 428h-10v-67h-91v-2h91v-9H324v-1 -3.33c26.86 0.59 155 0 201 0 17.17-7.74 20-11.25 34.67-46.9 -42 47.53-63.67 6.55-77-20.19 -18.67 52.82-51.67 46.11-76 20.69C403.67 308.19 428 340 428 340H320zM496 372h13v7h-13V372zM472 372h13v7h-13V372zM448 372h13v7h-13V372zM429 365h5v50h-5V365zM385 377l11-11.83V365h16v0.17L422 378v37h-37V377zM385 359h0.33H422v2h-10 -16 -11V359zM374 359h5v2 54h-5v-54V359z"/><!--Contact me by dengshendengshen@gmail.com or shen.deng@polytechnique.edu--><polygon fill="#2B1D5B" points="320 457 545 457 548 451 320 451 "/><polygon fill="#2B1D5B" points="320 465 541 465 544 460 320 460 "/><polygon fill="#2B1D5B" points="320 472 442 471 445 467 320 467 "/><path fill="#2B1D5B" d="M323 286c0 1.1 0.9 2 2 2h14c1.1 0 2-0.9 2-2l0 0c0-1.1-0.9-2-2-2h-14C323.9 284 323 284.9 323 286L323 286z"/><path fill="#2B1D5B" d="M350 286c0 1.1 0.9 2 2 2h14c1.1 0 2-0.9 2-2l0 0c0-1.1-0.9-2-2-2h-14C350.9 284 350 284.9 350 286L350 286z"/><path fill="#2B1D5B" d="M376.51 287c-0.37 1.04 0.18 2.18 1.22 2.55l13.2 4.66c1.04 0.37 2.18-0.18 2.55-1.22l0 0c0.37-1.04-0.18-2.18-1.22-2.55l-13.2-4.66C378.02 285.42 376.88 285.96 376.51 287L376.51 287z"/><rect x="326" y="315" fill="#2B1D5B" width="6" height="24"/><rect x="335" y="315" fill="#2B1D5B" width="6" height="24"/><rect x="344" y="315" fill="#2B1D5B" width="6" height="24"/><rect x="353" y="315" fill="#2B1D5B" width="6" height="24"/><rect x="362" y="315" fill="#2B1D5B" width="6" height="24"/><rect x="370" y="315" fill="#2B1D5B" width="6" height="24"/><rect x="379" y="315" fill="#2B1D5B" width="6" height="24"/><rect x="388" y="315" fill="#2B1D5B" width="6" height="24"/><rect x="397" y="315" fill="#2B1D5B" width="6" height="24"/><path fill="#2B1D5B" d="M412 318.79V339h-6v-24h4.09C410.72 316.3 411.36 317.56 412 318.79z"/><path fill="#2B1D5B" d="M421 339h-6v-14.72c2.28 3.97 4.4 7.3 6 9.61V339z"/><rect x="320" y="315" fill="#2B1D5B" width="3" height="24"/><path fill="none" d="M99.38 347.12c-14.76-119.05 71.15-227.69 191.89-242.67 120.74-14.98 230.59 69.39 245.35 188.44 14.77 119.05-71.15 227.69-191.89 242.67C223.99 550.53 114.15 466.16 99.38 347.12z"/><path fill="#FFFFFF" d="M95.58 177.94l1.32 0.76 -0.51 0.89c-0.17 0.3-0.22 0.72-0.14 1.26 0.08 0.54 0.45 1.1 1.09 1.67l30.92 25.71 -0.77 1.34 -25.34-9.9 -0.26 0.45 20.62 18.16 -0.77 1.34 -37.67-14.44c-0.59-0.33-1.09-0.48-1.51-0.42 -0.42 0.06-0.76 0.31-1.02 0.75l-0.51 0.89 -1.32-0.76 4.5-7.86 1.32 0.76 -0.38 0.67c-0.34 0.6-0.45 1.13-0.33 1.59 0.12 0.47 0.48 0.87 1.07 1.2l25.82 10.17 0.26-0.45 -16.79-14.8 -5.21-2.04c-0.58-0.33-1.13-0.4-1.64-0.2 -0.51 0.21-0.85 0.46-1.02 0.75l-0.38 0.67 -1.32-0.76 4.37-7.63 1.32 0.76 -0.38 0.67c-0.34 0.6-0.43 1.09-0.26 1.48 0.17 0.39 0.54 0.76 1.13 1.09l24.47 9.82 0.26-0.45 -19.86-16.85c-0.65-0.57-1.26-0.77-1.84-0.61 -0.58 0.16-1.04 0.54-1.38 1.14l-0.38 0.67 -1.32-0.76L95.58 177.94z"/><path fill="#FFFFFF" d="M141.84 186.1c1.58-2.03 2.27-4.28 2.04-6.74 -0.22-2.46-1.34-4.47-3.34-6.04l-23.21-18.13c-0.53-0.42-1.03-0.6-1.5-0.56 -0.46 0.05-0.94 0.38-1.44 1.01l-0.89 1.14 -1.2-0.94 5.39-6.9 1.2 0.94 -0.89 1.14c-0.4 0.51-0.58 1.02-0.56 1.55 0.02 0.53 0.3 1 0.83 1.41l23.21 18.13c2.67 2.08 4.06 4.64 4.16 7.66 0.11 3.02-0.74 5.69-2.53 7.99 -1.9 2.44-4.23 4.05-6.99 4.83 -2.76 0.79-5.61 0.03-8.54-2.26l-23.41-18.28c-0.53-0.42-1.04-0.59-1.52-0.53 -0.48 0.07-0.98 0.43-1.51 1.11l-0.79 1.02 -1.2-0.94 6.97-8.93 1.2 0.94 -0.79 1.01c-0.42 0.54-0.63 1.09-0.63 1.63 0 0.55 0.27 1.03 0.81 1.44l23.42 18.28c2.67 2.09 4.92 2.92 6.75 2.49C138.7 189.15 140.36 187.99 141.84 186.1z"/><path fill="#FFFFFF" d="M169.87 153.26c0.47 0.49 0.98 0.71 1.52 0.65 0.54-0.05 1.06-0.32 1.56-0.79l0.93-0.89 1.06 1.1 -8.17 7.85 -1.06-1.1 0.93-0.89c0.62-0.59 0.93-1.13 0.95-1.62 0.01-0.48-0.21-0.97-0.68-1.46l-12.85-13.36 -10.95 10.53 12.84 13.36c0.47 0.49 0.98 0.71 1.52 0.65 0.54-0.05 1.06-0.32 1.56-0.79l0.93-0.89 1.06 1.1 -8.17 7.85 -1.06-1.1 0.93-0.89c0.62-0.59 0.93-1.13 0.95-1.62 0.01-0.48-0.21-0.96-0.68-1.46l-25.16-26.18c-0.47-0.49-0.95-0.72-1.46-0.71 -0.5 0.01-1.09 0.34-1.75 0.98l-0.8 0.77 -1.06-1.1 8.17-7.85 1.06 1.1 -0.8 0.77c-0.53 0.51-0.85 1.05-0.95 1.61 -0.1 0.57 0.09 1.09 0.56 1.58l11.26 11.72L153 141.66l-11.26-11.71c-0.47-0.49-0.95-0.72-1.46-0.71 -0.5 0.01-1.09 0.34-1.75 0.98l-0.8 0.77 -1.06-1.1 8.17-7.85 1.06 1.1 -0.8 0.77c-0.53 0.51-0.85 1.05-0.95 1.61 -0.1 0.57 0.09 1.09 0.56 1.58L169.87 153.26z"/><path fill="#FFFFFF" d="M182.1 128.05l-9.25 6.65 3.63 9.24c0.62 1.44 1.34 2.44 2.17 3 0.82 0.56 1.72 0.49 2.7-0.21l0.63-0.45 0.89 1.24 -7.64 5.5 -0.89-1.24 0.63-0.45c0.56-0.4 0.92-0.92 1.09-1.57 0.17-0.65 0.03-1.43-0.43-2.36l-14.72-37.54 2.44-3.34 31.52 27.06c0.87 0.63 1.64 0.96 2.31 1 0.67 0.04 1.28-0.14 1.83-0.54l0.63-0.45 0.89 1.24 -9.03 6.49 -0.89-1.24 0.84-0.6c0.84-0.6 1.19-1.22 1.05-1.84 -0.14-0.63-0.69-1.33-1.66-2.08L182.1 128.05zM164.5 112.6l-0.25 0.15 8.03 20.49 8.85-6.37L164.5 112.6z"/><path fill="#FFFFFF" d="M218.72 113.75l0.46-0.24 -13.76-26.33c-0.31-0.6-0.7-0.97-1.16-1.11 -0.46-0.14-1.07-0.01-1.83 0.38l-1.83 0.95 -0.71-1.35 9.13-4.77 0.71 1.35 -1.83 0.95c-0.61 0.32-1.03 0.73-1.25 1.22 -0.22 0.5-0.18 1.05 0.13 1.65l18.46 35.33 -1.37 0.72 0.13-0.06 -34.99-24.4 -0.46 0.24 15.87 30.38c0.31 0.6 0.74 0.95 1.28 1.05 0.54 0.11 1.11-0.01 1.72-0.32l1.83-0.96 0.71 1.35 -9.13 4.77 -0.71-1.35 1.83-0.95c0.76-0.4 1.21-0.82 1.36-1.28 0.15-0.46 0.06-0.99-0.25-1.59L186.25 97.2c-0.31-0.6-0.72-0.96-1.22-1.08 -0.5-0.12-1.18 0.05-2.05 0.5l-1.55 0.81 -0.71-1.35 7.24-3.78L218.72 113.75z"/><path fill="#FFFFFF" d="M274.18 104.69c2.52-0.51 4.5-1.77 5.94-3.79 1.43-2.01 1.9-4.27 1.4-6.76l-5.82-28.87c-0.13-0.66-0.39-1.13-0.77-1.4 -0.38-0.27-0.96-0.32-1.75-0.17l-1.41 0.28 -0.3-1.49 8.58-1.73 0.3 1.49 -1.41 0.29c-0.63 0.13-1.11 0.4-1.43 0.81 -0.33 0.41-0.42 0.95-0.29 1.61l5.82 28.87c0.67 3.32 0.06 6.16-1.83 8.53 -1.89 2.37-4.26 3.84-7.12 4.41 -3.03 0.61-5.85 0.31-8.45-0.89 -2.61-1.2-4.28-3.63-5.01-7.28l-5.87-29.12c-0.13-0.66-0.4-1.12-0.81-1.39 -0.41-0.26-1.03-0.31-1.87-0.14l-1.26 0.25 -0.3-1.49 11.11-2.24 0.3 1.49 -1.26 0.25c-0.67 0.14-1.19 0.41-1.54 0.83 -0.36 0.42-0.46 0.96-0.33 1.62l5.87 29.12c0.67 3.32 1.83 5.42 3.5 6.29C269.81 104.97 271.82 105.16 274.18 104.69z"/><path fill="#FFFFFF" d="M314.38 91.45l0.51-0.03 -1.79-29.65c-0.04-0.67-0.24-1.17-0.61-1.49 -0.37-0.32-0.97-0.45-1.83-0.4l-2.06 0.12 -0.09-1.52 10.28-0.62 0.09 1.52 -2.06 0.12c-0.69 0.04-1.23 0.24-1.64 0.61 -0.41 0.37-0.59 0.89-0.55 1.56l2.4 39.79 -1.54 0.09 0.14-0.01L293.7 64.97l-0.51 0.03 2.06 34.22c0.04 0.68 0.28 1.17 0.73 1.48 0.45 0.31 1.01 0.45 1.7 0.41l2.06-0.12 0.09 1.52 -10.28 0.62 -0.09-1.52 2.06-0.12c0.86-0.05 1.44-0.25 1.77-0.62 0.32-0.36 0.46-0.87 0.42-1.55l-2.19-36.24c-0.04-0.67-0.27-1.17-0.67-1.49 -0.41-0.31-1.1-0.44-2.07-0.38l-1.75 0.1 -0.09-1.52 8.15-0.49L314.38 91.45z"/><path fill="#FFFFFF" d="M330.08 59.89l0.12-1.52 20.54 1.65 -0.12 1.52 -5.9-0.48c-0.69-0.06-1.26 0.07-1.71 0.37 -0.46 0.31-0.71 0.79-0.76 1.47l-2.91 36.19c-0.05 0.68 0.12 1.2 0.52 1.57 0.4 0.37 0.94 0.58 1.63 0.64l5.9 0.48 -0.12 1.52 -20.54-1.65 0.12-1.52 5.9 0.48c0.86 0.07 1.47-0.05 1.84-0.36 0.37-0.31 0.58-0.8 0.64-1.48l2.91-36.19c0.05-0.67-0.08-1.19-0.39-1.56 -0.32-0.36-0.9-0.58-1.76-0.65L330.08 59.89z"/><path fill="#FFFFFF" d="M382.56 67.53l0.34-1.49 9.12 2.06 -0.34 1.49 -1-0.23c-0.67-0.15-1.36-0.05-2.05 0.32 -0.7 0.36-1.37 1.17-2 2.41l-18.75 35.07 -1.51-0.34 -0.84-39.5c0.09-1.19-0.01-2.13-0.29-2.8 -0.29-0.67-0.85-1.1-1.69-1.29l-1.26-0.28 0.34-1.49 10.73 2.43 -0.34 1.49 -1-0.23c-0.84-0.19-1.44-0.06-1.8 0.38 -0.36 0.44-0.55 1.09-0.57 1.95l0.64 29.73 0.52 0.12 13.74-25.7c0.6-1.08 0.8-1.94 0.59-2.6 -0.21-0.65-0.81-1.09-1.82-1.32L382.56 67.53z"/><path fill="#FFFFFF" d="M399.71 72.04l0.54-1.42 23.58 8.99 -0.43 9.07 -1.38 0.02c-0.38-2.86-1.06-5.16-2.05-6.9 -0.99-1.74-2.37-2.94-4.13-3.61l-6.74-2.57c-0.64-0.25-1.23-0.29-1.75-0.12 -0.52 0.17-0.9 0.56-1.14 1.19L400.6 91.4l6.98 2.66c1.6 0.61 2.92 0.66 3.94 0.15 1.02-0.51 1.84-1.56 2.44-3.15l0.54-1.42 1.44 0.55 -5.25 13.76 -1.44-0.55 0.35-0.92c0.64-1.67 0.77-3.1 0.4-4.29 -0.37-1.19-1.36-2.09-2.97-2.7l-6.98-2.66 -6.79 17.79c-0.24 0.63-0.22 1.18 0.06 1.65 0.28 0.47 0.74 0.83 1.38 1.07l6.26 2.39c2.41 0.92 4.71 1.03 6.91 0.32 2.2-0.7 4.32-2.29 6.37-4.77l1.02 0.93 -6.15 8.25 -24.32-9.28 0.54-1.42 1.35 0.51c0.75 0.29 1.33 0.33 1.75 0.13 0.42-0.2 0.75-0.62 0.99-1.25l12.94-33.93c0.24-0.63 0.26-1.17 0.06-1.61 -0.2-0.44-0.7-0.81-1.5-1.12L399.71 72.04z"/><path fill="#FFFFFF" d="M453.97 106.63c-1.64 2.96-3.74 4.8-6.3 5.51 -2.56 0.71-4.96 0.63-7.23-0.24l-2.36 20.18c-0.03 0.76 0.08 1.35 0.34 1.78 0.25 0.43 0.6 0.77 1.05 1.02l1.35 0.75 -0.74 1.33 -6.3-3.5 2.74-23.45 -4.76-2.64 -8.87 15.99c-0.33 0.59-0.4 1.13-0.21 1.62 0.19 0.49 0.56 0.89 1.12 1.2l1.26 0.7 -0.74 1.33 -9.91-5.5 0.74-1.33 1.26 0.7c0.7 0.39 1.27 0.52 1.72 0.37 0.45-0.14 0.83-0.5 1.16-1.1l17.61-31.75c0.33-0.59 0.43-1.11 0.32-1.57 -0.12-0.45-0.53-0.87-1.22-1.26l-1.26-0.7 0.74-1.33 12.71 7.05c3.42 1.9 5.65 4.1 6.69 6.61C455.91 100.94 455.61 103.68 453.97 106.63zM432.5 106.05l4.87 2.7c2.21 1.23 4.42 1.58 6.64 1.07 2.21-0.51 4.1-2.18 5.66-4.99 1.39-2.52 1.82-4.84 1.27-6.99 -0.55-2.14-2.22-3.99-5.02-5.54l-2.43-1.35c-0.59-0.33-1.16-0.45-1.69-0.35 -0.54 0.09-0.96 0.44-1.29 1.03L432.5 106.05z"/><path fill="#FFFFFF" d="M464.96 129.58c-2.47-4.42-3.93-7.76-4.37-10.01 -0.45-2.25 0.3-4.66 2.24-7.22 1.53-2.02 3.84-3.3 6.92-3.83 3.08-0.53 6.19 0.39 9.32 2.76 1.36 1.03 2.47 2.25 3.34 3.65 0.87 1.4 1.57 2.31 2.12 2.72 0.4 0.31 0.86 0.49 1.35 0.54 0.49 0.06 1.08-0.08 1.77-0.42l-5.37 9 -1.32-0.36c0.99-3.83 1.23-6.76 0.74-8.77 -0.5-2.01-1.75-3.79-3.78-5.32 -2.57-1.95-4.88-2.56-6.91-1.83 -2.04 0.73-3.68 1.91-4.93 3.56 -1.15 1.51-1.62 3.05-1.42 4.6 0.2 1.56 1.57 4.71 4.12 9.45 2.24 3.82 3.44 7.1 3.59 9.87 0.15 2.76-0.63 5.29-2.37 7.57 -1.84 2.42-4.32 3.92-7.44 4.52 -3.13 0.6-6.32-0.35-9.59-2.82 -1.36-1.03-2.45-2.22-3.24-3.57 -0.8-1.35-1.54-2.28-2.22-2.8 -0.41-0.31-0.92-0.48-1.53-0.52 -0.62-0.04-1.34-0.06-2.2-0.07l5.77-11.24 1.54 0.53c-1.66 4.17-2.13 7.56-1.41 10.17 0.71 2.61 2.17 4.74 4.36 6.4 2.32 1.76 4.59 2.4 6.79 1.92 2.2-0.49 4.28-2.03 6.25-4.62 1.04-1.37 1.4-3.19 1.08-5.48C467.82 135.68 466.76 132.89 464.96 129.58z"/><path fill="#FFFFFF" d="M499.43 130.78l1.08-1.07 14.48 14.66 -1.08 1.07 -4.16-4.21c-0.48-0.49-1-0.77-1.54-0.83 -0.54-0.07-1.05 0.14-1.54 0.61l-25.83 25.52c-0.48 0.48-0.69 0.99-0.63 1.53 0.06 0.54 0.33 1.06 0.81 1.55l4.16 4.21 -1.08 1.07 -14.48-14.66 1.08-1.07 4.16 4.21c0.6 0.61 1.14 0.92 1.63 0.93 0.48 0.01 0.96-0.23 1.45-0.7l25.83-25.52c0.48-0.47 0.72-0.95 0.72-1.44 0-0.48-0.3-1.03-0.91-1.64L499.43 130.78z"/><path fill="#FFFFFF" d="M501.13 196.66l-7.94-10.78 1.23-0.9 1.38 1.87c0.51 0.69 1 1.07 1.48 1.15 0.48 0.07 0.99-0.09 1.54-0.49l28.8-21.22c1.1-0.81 1.66-1.33 1.7-1.57 0.04-0.24-0.3-0.85-1.01-1.81 -1.43-1.94-2.77-3.03-4.03-3.27 -1.26-0.24-3.85 0.22-7.75 1.39l-0.71-1.39 9.14-3.86 14.51 19.7 -6.55 7.38 -0.97-0.89c2.13-3.28 3.36-5.52 3.68-6.71 0.32-1.19-0.24-2.76-1.67-4.69 -1.02-1.38-1.65-2.09-1.89-2.13 -0.24-0.04-0.97 0.4-2.21 1.31l-28.6 21.07c-0.55 0.4-0.83 0.88-0.85 1.43 -0.02 0.55 0.17 1.1 0.58 1.65l1.37 1.87L501.13 196.66z"/><path fill="#FFFFFF" d="M551.99 206.65c0.98-0.32 1.59-0.79 1.84-1.41 0.24-0.62 0.09-1.46-0.48-2.52l-0.24-0.46 1.35-0.72 4.84 9.09 -1.35 0.72 -0.37-0.69c-0.41-0.77-1.04-1.31-1.88-1.65 -0.85-0.33-1.92-0.45-3.21-0.35l-21.44 2.42 -13 6.92c-0.6 0.32-0.95 0.74-1.04 1.28 -0.1 0.54 0.01 1.11 0.34 1.72l1.09 2.05 -1.34 0.71 -6.29-11.82 1.34-0.72 1.09 2.05c0.4 0.76 0.83 1.21 1.3 1.35 0.46 0.14 0.99 0.06 1.59-0.26l11.66-6.2 15.5-18.43c0.58-0.7 0.98-1.4 1.18-2.1 0.21-0.7 0.11-1.43-0.3-2.19l-0.24-0.46 1.35-0.71 5.41 10.17 -1.34 0.72 -0.73-1.36c-0.48-0.91-0.99-1.32-1.52-1.24 -0.53 0.08-1.16 0.52-1.89 1.31l-13.36 15.07 0.26 0.49L551.99 206.65z"/><circle fill="none" stroke="#30254F" stroke-width="10" stroke-miterlimit="10" cx="320" cy="320" r="294"/><polygon fill="#2B1D5B" points="320 423 320 420 234.35 420 232.87 423 "/><polygon fill="#2B1D5B" points="320 429 320 426 231.39 426 229.91 429 "/><polygon fill="#2B1D5B" points="320 435 320 432 228.43 432 226.95 435 "/><polygon fill="#2B1D5B" points="320 441 320 438 225.47 438 223.99 441 "/><polygon fill="#2B1D5B" points="320 447 320 444 222.5 444 221.02 447 "/><polygon fill="#2B1D5B" points="320 423 320 420 405.67 420 407.15 423 "/><polygon fill="#2B1D5B" points="320 429 320 426 408.63 426 410.12 429 "/><polygon fill="#2B1D5B" points="320 435 320 432 411.6 432 413.08 435 "/><polygon fill="#2B1D5B" points="320 441 320 438 414.56 438 416.04 441 "/><polygon fill="#2B1D5B" points="320 447 320 444 417.52 444 419 447 "/></g><g id="&#22270;&#23618;_2" display="none"><!--Not exactly the same with the original--><image display="inline" overflow="visible" width="280" height="106" transform="matrix(0.9999 0 0 0.9999 181.0137 496.9961)"/></g><g id="&#22270;&#23618;_13"><circle fill="none" cx="320" cy="320" r="257.5"/><path fill="#FFFFFF" d="M252.47 563.36l-0.57 0.61c0.25 0.47 0.66 0.85 1.22 1.15 -0.64-0.06-1.19 0.04-1.65 0.29 0.29 0.35 0.33 0.62 0.14 0.83 -1.19 0.04-2.81 0.01-4.87-0.09 -2.18-0.13-3.77-0.28-4.76-0.45 -0.36-0.11-0.74-0.16-1.13-0.14 -3.87 0.28-6.7 0.15-8.49-0.39 -1.08-0.32-1.32-1.25-0.74-2.77l0.05-0.18c0.04-0.12 0.19-0.2 0.47-0.25 0.12 0.04 0.38 0.05 0.77 0.04 1.19-0.04 2.06-0.36 2.64-0.97 0.08-1.15 0.29-2.26 0.61-3.34 0.68-2.27 1.76-3.26 3.23-2.95 1.16 0.48 1.5 1.1 1.01 1.87 -0.79 0.03-1.29 0.4-1.51 1.11 -0.65 2.16-0.75 3.82-0.32 4.99 1.19-0.04 2.37-0.07 3.56-0.11 -0.36-2.72 0.46-5.47 2.48-8.26 0.92-0.9 1.7-1.32 2.33-1.26 -0.18 0.6-0.39 1.52-0.63 2.75 -0.32 1.08-0.5 1.88-0.52 2.39 0.15-0.08 0.45-0.19 0.88-0.32 0.83-0.14 1.31-0.45 1.45-0.93 2.26-1.02 3.63-0.35 4.1 2.01 -0.19 0.21-0.38 0.41-0.57 0.61 -1.07 1.38-2 1.88-2.8 1.51 -0.24-0.07-0.46-0.2-0.66-0.39 -0.37-0.5-0.68-0.79-0.92-0.86 -0.72-0.21-1.45 0.48-2.19 2.08l-0.11 0.36c0.68 0.34 1.87 0.5 3.57 0.48C250.23 562.76 251.54 562.96 252.47 563.36zM256.05 548.78c0.57-1.91 0.88-4.69 0.93-8.33 -0.03-0.79-0.03-1.64-0.02-2.55 0.26-1.75 0.4-3.08 0.41-3.99 0.3-0.56 1.12-0.71 2.48-0.43 0.24 0.07 0.23 0.53-0.02 1.36l-0.05 0.18c-0.14 0.48-0.26 1.1-0.36 1.85 -0.05 1.03-0.08 1.8-0.11 2.32 -0.14 0.48-0.3 1.22-0.47 2.21 -0.12 1.27-0.19 2.16-0.21 2.68 -0.23 1.63-0.46 3.26-0.68 4.89 2.91-0.56 4.53 0.57 4.85 3.41 -0.49 0.77-1.49 1.05-3 0.86 -0.75-0.09-1.25-0.18-1.49-0.25 -1.12 5.93-1.34 10.56-0.64 13.9 0.53 3.03 1.45 4.74 2.77 5.14 0.99 0.17 1.94 0.06 2.84-0.32 0.44 0.26 0.22 0.78-0.66 1.56 -0.16 0.08-0.27 0.24-0.34 0.49 -0.19 0.2-0.2 0.66-0.02 1.36 0.1 0.55 0.09 1.01-0.02 1.37 -0.41 0.92-1.15 1.22-2.23 0.9 -0.84-0.25-1.66-1.22-2.46-2.89l-0.13-0.23c-0.72-1.52-1.25-3.25-1.58-5.17 -0.43-2.48-0.57-6.37-0.42-11.67 0.06-1.94 0.11-3.42 0.16-4.45 -3.31-0.73-8.26-1.17-14.87-1.32 -0.4 0.01-0.99 0.03-1.78 0.05 -1.58 0.05-2.77-0.11-3.57-0.48 -0.96-0.29-1.33-0.79-1.11-1.51 -0.09-0.15 0.03-0.32 0.34-0.49 0.07-0.24 0.18-0.4 0.34-0.49 0.04-0.12 0.11-0.36 0.22-0.72 0.06-0.63 0.29-0.96 0.68-0.97 0.68 0.34 1.8 0.54 3.34 0.61 0.27-0.05 0.55-0.1 0.83-0.14C247.55 547.54 252.9 547.96 256.05 548.78zM246.32 544.69l-1.8-0.54c-0.96-0.29-1.85-0.81-2.66-1.58 0.09-0.75 0.55-1.4 1.36-1.94 0.81-0.54 1.9-0.67 3.25-0.4 -0.12-0.04 0.02-0.06 0.41-0.07 0.84 0.25 2.03 0.41 3.57 0.48 0.79-0.02 1.38-0.04 1.78-0.05 0.75 0.1 1.51 0.19 2.26 0.29 1.68 0.5 2.26 1.59 1.76 3.27 -0.34 0.68-1.75 1.04-4.24 1.08 -1.34 0.12-2.45 0.12-3.32-0.02C247.8 545.2 247 545.02 246.32 544.69zM263.31 545.47c0.25-0.84-0.43-1.17-2.05-1 0.07-0.24 0.44-0.58 1.1-1.04 0.47-0.25 0.79-0.48 0.99-0.68 0.61-0.73 1.31-0.91 2.12-0.54 0.36 0.11 0.71 0.47 1.04 1.09 0.05 0.28 0.19 0.45 0.43 0.52 0.08 0.16 0.18 0.25 0.31 0.29 0.48 0.14 0.66 0.39 0.56 0.75 -0.34 0.68-0.95 1.41-1.83 2.19 -0.73 0.7-1.92 0.73-3.56 0.11C262.71 546.6 263.01 546.04 263.31 545.47z"/><path fill="#FFFFFF" d="M282.3 556.56c0.08-0.87 0.87-1.3 2.37-1.3 0.38-0.09 0.77-0.18 1.15-0.28 1.72 0.4 2.62 1.61 2.69 3.63 -0.08 0.87-0.68 1.32-1.81 1.35 -0.25-0.02-0.44-0.04-0.56-0.05 -0.37-0.03-0.82 0.05-1.34 0.26l-0.19-0.02C283.13 559.9 282.36 558.7 282.3 556.56zM290.93 561.08l0.37 0.03c-0.32 0.73-0.91 1.8-1.79 3.23 -1.17 1.91-1.8 3.36-1.89 4.35 -0.18 0.61-0.12 1.37 0.18 2.27 0.16 1.02 0.22 1.78 0.18 2.27 -0.2 0.86-0.68 1.32-1.44 1.38 -0.76 0.06-1.29-0.36-1.58-1.27 -0.11-0.13-0.22-0.33-0.32-0.59 -0.35-1.79-1-2.91-1.96-3.37l0.07-0.75c0.4-0.21 0.97-0.35 1.73-0.41 1.01-0.04 1.72-0.29 2.14-0.75 0.56-0.7 1.36-1.89 2.38-3.55C289.73 562.61 290.38 561.66 290.93 561.08zM289.45 552.29c-1.64 0.11-2.29-1.08-1.95-3.56 -0.08-0.51 0.09-1 0.51-1.46 2.07-0.69 3.61 0.32 4.63 3.04C292.39 551.68 291.33 552.33 289.45 552.29zM306.91 554.96l3.74 0.33c0.86 0.2 1.31 0.75 1.36 1.63 -0.06 0.63-0.44 1.41-1.15 2.35 -0.42 0.47-0.63 0.76-0.64 0.88 0.51-0.08 0.74 0.19 0.68 0.81 -0.19 0.74-1.11 1.22-2.76 1.45 -0.77 0.18-1.28 0.33-1.54 0.43l0.31 0.78c2.33-0.8 3.55-0.44 3.67 1.08 -0.1 1.12-1.43 1.94-3.98 2.47 -0.64 0.07-1.01 0.1-1.14 0.09l-0.39 0.15c-0.62-0.05-1.03 0.22-1.2 0.83 2.39-0.04 5.04-0.31 7.98-0.8 1.61 0.27 2.41 1.09 2.42 2.47 -0.68 0.57-1.58 0.87-2.71 0.89 -2.15 0.19-4.3 0.37-6.45 0.56 -1.88-0.04-3.15 0.1-3.8 0.42 -1.41 1.76-2.93 3.32-4.55 4.68 -0.81 0.68-1.75 1.29-2.8 1.82 -0.35-0.28-0.38-0.72-0.07-1.32 0.01-0.13 0.08-0.18 0.2-0.17 0.42-0.47 0.9-0.99 1.46-1.57 1.51-1.5 2.56-2.72 3.15-3.68 -0.64 0.07-1.59 0.17-2.85 0.31 -1.66 0.36-2.86 0.44-3.6 0.25 -0.99-0.21-1.46-0.5-1.43-0.88 0.05-0.62 0.79-1.12 2.2-1.5 0.25 0.02 0.44-0.02 0.58-0.14 0.26-0.1 0.77-0.18 1.53-0.24 1.91-0.33 3.1-0.98 3.56-1.95 -0.86-0.2-1.75-0.15-2.65 0.14 -1.58-0.64-1.88-1.42-0.92-2.34 0.27-0.23 0.85-0.36 1.73-0.41 0.37 0.03 0.69 0 0.95-0.1 0.12 0.01 0.37 0.03 0.75 0.07 1.9-0.21 3.08-0.73 3.53-1.57l-2.24-0.2c-0.37-0.03-0.73-0.31-1.05-0.85 -1.83 0.84-2.74-0.24-2.73-3.25 0.04-1.88 1.8-3.35 5.28-4.43 -0.61-0.18-1.07-0.66-1.38-1.44 -0.31-0.78-0.64-1.25-1.01-1.41 -0.13-0.01-0.31-0.09-0.54-0.24 -0.61-0.18-0.9-0.52-0.85-1.02 0.04-0.5 0.51-0.83 1.41-1.01 0.13-0.11 0.33-0.22 0.59-0.32 0.51-0.08 0.98-0.48 1.42-1.19 0.02-0.25 0.1-0.43 0.24-0.54 0.01-0.12 0.09-0.3 0.24-0.54 0.45-0.84 1.05-1.22 1.8-1.16 0.75 0.07 0.8 0.82 0.18 2.27 -0.01 0.13-0.02 0.25-0.03 0.37 0.38-0.09 1.02-0.16 1.9-0.21 1.53-0.24 2.68-0.52 3.46-0.83 -0.22-0.4-0.46-0.54-0.71-0.44 0.9-1.68 1.98-2.58 3.25-2.73 1.1 0.35 1.26 1.37 0.48 3.05 1.55-0.49 2.4-0.17 2.55 0.98 -0.07 0.75-0.55 1.21-1.44 1.38 -0.51 0.08-0.83 0.18-0.97 0.29 -0.4 0.22-0.89 0.8-1.47 1.75 -0.27 0.23-0.48 0.46-0.63 0.7C308.94 553.26 307.98 554.18 306.91 554.96zM300 560.75l2.65-0.14c0.44-0.71 0.63-1.45 0.57-2.21 -2.53 0.15-4.09 0.77-4.68 1.85 0.21 0.4 0.31 0.78 0.27 1.15l0.59-0.32C299.67 560.85 299.87 560.74 300 560.75zM298.86 569.31c0.87 0.08 1.53-0.24 1.97-0.96C300.18 568.55 299.53 568.87 298.86 569.31zM303.44 555.79l-0.31-0.78c-0.27 0.23-0.73 0.44-1.37 0.63 -1.28 0.26-2.01 0.7-2.19 1.31C300.85 556.69 302.14 556.3 303.44 555.79zM302.72 551.2l-0.5 1.46c3.21 0.54 5.3-0.29 6.24-2.46C306.56 550.29 304.65 550.62 302.72 551.2zM310.67 576.37c-0.2 0.86-0.74 1.25-1.61 1.18 -0.5-0.04-0.98-0.28-1.44-0.69 -0.13-0.01-0.31-0.09-0.54-0.24 -0.94-0.71-1.32-1.43-1.13-2.17 0.05-0.62 0.71-0.94 1.97-0.96C309.76 573.79 310.68 574.75 310.67 576.37zM308.2 557.33c-0.75-0.07-1.26 0.02-1.53 0.24 -0.42 0.47-0.66 1.14-0.74 2 -0.02 0.25 0.02 0.44 0.14 0.58 2.14-0.06 3.34-0.84 3.59-2.32C309.19 557.55 308.7 557.38 308.2 557.33z"/><path fill="#FFFFFF" d="M346.44 549.19l-0.21-1.86c-0.07-0.62-0.03-1.38 0.12-2.28 0.23-0.15 0.43-0.61 0.6-1.39 0.08-0.39 0.17-0.71 0.27-0.97 2.05-1.86 3.42-2.02 4.1-0.46 0.07 0.62-0.15 1.46-0.66 2.53 -0.1 0.26-0.14 0.46-0.12 0.58 -0.81 2.86-1.07 5.03-0.78 6.5 0.06 1.63 0.76 2.31 2.11 2.03 0.37-0.04 0.86-0.16 1.47-0.35 0.61-0.19 1.1-0.31 1.47-0.35 2.03 0.15 3.24 0.89 3.65 2.23 0.03 0.25-0.07 0.51-0.29 0.79 -1.2 0.51-2.4 1.02-3.6 1.54 -0.84 0.35-2.17 0.87-3.97 1.58 -0.47 0.31-0.83 0.47-1.08 0.5 -0.34 0.29-0.65 0.95-0.91 1.99 -0.19 0.53-0.37 1.17-0.54 1.95 -0.33 1.55-0.7 2.72-1.11 3.52 -0.41 0.8-1.18 1.83-2.29 3.09 -0.46 0.43-0.91 0.92-1.34 1.47 -0.22 0.28-0.5 0.62-0.83 1.04 -3.79 4.32-7.03 7.39-9.72 9.21 1.28-2.03 2.71-3.83 4.3-5.39 3.09-3.87 5.13-6.99 6.12-9.37 0.67-1.84 1.1-3.64 1.28-5.43l-0.04-0.37c-0.62 0.07-1.35 0.28-2.19 0.62 -0.95 0.48-1.69 0.69-2.19 0.62 -1.86 0.21-2.9-0.05-3.11-0.78 -0.2-1.74 1.35-3.11 4.63-4.11 0.12-0.01 0.3-0.1 0.54-0.25 0.12-0.01 0.43-0.05 0.93-0.1 1.37-0.15 2.14-0.49 2.34-1.02 0.54-0.81 0.88-2.24 1.03-4.27C346.54 551.19 346.56 550.19 346.44 549.19zM366.02 575.67c-0.26-0.1-0.64-0.12-1.14-0.06 -9.18 0.02-14.73-2.31-16.63-7 0.56-0.57 1.16-0.88 1.78-0.96 0.39 0.08 0.73 0.36 1.04 0.83 0.15 0.24 0.36 0.4 0.62 0.5 0.43 0.46 1.29 0.86 2.59 1.22 0.65 0.18 1.1 0.25 1.35 0.23 2.07 0.52 4.13 0.92 6.17 1.19 0.39 0.08 0.77 0.17 1.16 0.25 3.41 0.12 5.85 0.6 7.33 1.44 -0.36 0.17-0.97 0.36-1.82 0.58C366.99 574.18 366.17 574.77 366.02 575.67z"/><!--邓燊制作，与原版有出入，仅供个人非商业使用--><path fill="#FFFFFF" d="M401.39 529.47l0.47 0.24c-0.24 0.47-0.19 1.05 0.17 1.72 0.27 0.83 0.33 1.41 0.17 1.72 0.39 0.79 0.78 1.59 1.17 2.38 -0.16 0.32-0.2 0.79-0.13 1.42 0.04 0.51 0.07 0.83 0.11 0.95 -0.12 0.43-0.26 1.01-0.43 1.72 -0.2 0.99-0.27 1.8-0.19 2.43 0.36-0.12 0.93-0.37 1.72-0.76 1.9-1.01 3.39-1.3 4.45-0.86l-0.12 0.83 0.36-0.12c0.35 0.67 0.38 1.58 0.1 2.73 -0.28 0.75-0.36 1.3-0.25 1.66l-0.47-0.24c-0.2 0.59-0.78 0.85-1.72 0.76 -0.24 0.08-0.38 0.06-0.42-0.06l-1.08 1.54c-0.07-1.03 0.29-2.33 1.09-3.91 -0.15-0.47-0.47-0.63-0.95-0.48l-1.78 0.58c-2.5 1.61-6.23 3.68-11.19 6.21 -1.82 0.86-3.13 1.48-3.92 1.87 -2.89 1.21-4.6 2.42-5.12 3.64 -0.56 1.1-0.53 2.41 0.09 3.91l-0.47-0.24c-0.92 1.22-1.51 1.81-1.79 1.77 -0.63 0.08-1.22-0.52-1.77-1.79 -0.08-0.24-0.12-0.75-0.11-1.54 0-0.4 0.04-0.67 0.12-0.83l-0.06-0.18c0.33-2.21 0.83-3.49 1.51-3.84 0.47 0.24 0.91 0.36 1.3 0.36 -0.12-0.75 0.44-1.46 1.67-2.12 -0.47-0.63-0.82-1.31-1.05-2.02l-0.81-2.5c-0.7-2.14-1-4.28-0.91-6.41 -0.71 0.23-1.15 0.11-1.3-0.36 -0.47-1.03 0.23-2.11 2.1-3.25 0.24-0.08 0.45-0.21 0.65-0.41 0.12-0.04 0.38-0.25 0.78-0.65 2.15-1.88 3.43-2.17 3.86-0.86 0.23 0.71-0.39 1.44-1.85 2.18 -0.67 0.35-1.05 0.61-1.13 0.76 -0.4 0.39-0.62 1.12-0.67 2.19 -0.08 0.16-0.1 0.3-0.06 0.42 -0.04 0.28-0.08 0.55-0.12 0.83 -0.12 0.43-0.12 0.83-0.01 1.19 1.32-2.01 2.63-2.83 3.93-2.46 0.08 0.24 0.11 0.55 0.11 0.95 -0.12 0.44-0.08 0.75 0.11 0.95 1.16-1.3 1.71-2.4 1.68-3.31 -1.03 0.07-1.48-0.31-1.36-1.14 0.48-0.95 1.17-1.43 2.08-1.47 -0.15-0.87-0.19-1.78-0.1-2.73 0.52-0.83 1.15-0.9 1.9-0.22 -0.08 0.95-0.17 1.9-0.26 2.84 0.08 0.24 0.31 0.36 0.71 0.36 0.51-0.04 0.87 0.05 1.07 0.24 0.04 0.51 0.31 0.95 0.82 1.31 0.71 0.56 0.7 1.55-0.02 2.96l-0.12 0.24c0.12 0.36 0.41 0.65 0.88 0.89 0.71 0.16 1.12 0.42 1.24 0.78 0.27 0.83 0.07 1.42-0.6 1.77 -0.36 0.12-0.97 0.05-1.84-0.19 -0.47-0.24-0.85-0.38-1.12-0.42 -0.6 1.38-1.6 2.36-2.98 2.95 -0.12-0.36 0.07-1.01 0.55-1.95 0.44-0.67 0.66-1.2 0.66-1.6 -1.22-0.52-1.42-1.12-0.58-1.78l1.78-0.58c0.47-0.15 0.8-0.78 0.96-1.89 0.08-0.16 0.16-0.31 0.24-0.47 -1.15-0.28-1.94-0.29-2.37-0.02 -1 2.17-1.96 3.67-2.88 4.49 0.55 0.08 0.99 0.6 1.29 1.55 0.35 1.07-0.17 1.9-1.56 2.48 -0.2 0.2-0.42 0.33-0.66 0.41 -0.91 0.43-1.57 0.84-1.96 1.23 0.12 0.36 0.31 0.75 0.59 1.19 0.04 0.12 0.12 0.16 0.24 0.12l3.56-1.16c1.47-0.35 3.47-1.26 6.01-2.75 2.26-1.13 4.02-1.97 5.29-2.52l-0.58-1.78 1.3 0.36c0.53-2.01 0.42-4.34-0.31-7 -0.5-1.54-1.09-2.53-1.76-2.98 -0.91 0.83-1.91 1.41-2.98 1.76 -0.71 0.23-1.46 0.35-2.25 0.34 -0.34-2.26 1.05-4.02 4.18-5.31C400.81 528.08 401.83 528.41 401.39 529.47zM383.63 543.94l0.81 2.5c0.32-0.23 0.64-0.67 0.96-1.3 0.32-0.63 0.64-1.06 0.96-1.3 0.12-0.04 0.28-0.15 0.48-0.35 0.83-0.67 1.07-1.34 0.72-2.01C386.16 542.85 384.85 543.67 383.63 543.94zM398.07 548.3l0.12 0.36c0.6-0.98 1.27-1.33 2.02-1.05 1.03-0.86 2.18-0.58 3.43 0.85 0.31 1.35-0.26 2.84-1.69 4.5 -0.2 0.2-0.28 0.36-0.24 0.47 -0.44 0.28-0.6 0.59-0.48 0.95 0.2 0.2 0.47 0.24 0.83 0.12l3.57-1.16c0.24-0.08 0.51-0.03 0.83 0.12 0.12-0.04 0.24-0.08 0.36-0.12 0.67 0.05 1.11 0.17 1.3 0.36 0.27 1.23-0.49 2.13-2.27 2.71l-2.14 0.7 0.93 2.85c0.66 2.02 0.65 3.6-0.03 4.74 -0.36 1.3-1.24 2.64-2.63 4.02 -0.32 0.23-0.52 0.43-0.6 0.59 -0.72 1.02-1.4 1.77-2.03 2.24l-0.47-0.24c0.4-0.79 0.48-1.34 0.25-1.66l-0.83-0.12c0.48-0.95 1.08-1.53 1.79-1.77 1.18 0.4 2.06-0.54 2.63-2.83 0.52-0.83 0.6-1.77 0.26-2.84l-0.58-1.78c-0.23-0.71-0.67-1.23-1.29-1.55 -1.51 0.62-3.41 1.84-5.72 3.64 -0.95 0.71-1.87 1.33-2.74 1.88 -0.36 0.12-0.65 0.21-0.89 0.29 -0.83-0.12-1.36 0.05-1.6 0.52 -0.59-0.2-0.75-0.67-0.47-1.43 0.28-0.75 0.56-1.5 0.84-2.25 0.16-0.31 0.58-0.65 1.25-1 0.36-0.12 0.57-0.25 0.66-0.41 0.55-0.31 1.37-0.84 2.44-1.59 0.99-0.58 1.81-1.11 2.44-1.58 0.44-0.27 0.93-0.96 1.5-2.07 0.12-0.43 0.22-0.73 0.3-0.89 0.08-0.16 0.32-0.43 0.72-0.83 0.32-0.23 0.55-0.51 0.72-0.83 0.08-0.16 0.18-0.45 0.3-0.89 0.12-0.43 0.22-0.73 0.3-0.89 -0.16-0.47-0.47-0.63-0.95-0.48 -0.52 0.43-1.11 0.83-1.79 1.17 -3.77 1.75-5.68 3.76-5.73 6.01 -0.24 0.08-0.51 0.04-0.83-0.12 -0.39 0-0.67-0.04-0.83-0.12 -0.24 0.08-0.48 0.16-0.71 0.23 -0.44 0.28-0.83 0.27-1.19-0.01 0.25-1.66 0.81-3.15 1.69-4.5 0.16-0.31 0.7-0.69 1.61-1.12 0.24-0.08 0.45-0.21 0.66-0.41C395.09 549.67 396.76 548.73 398.07 548.3zM399.9 539.42l0.59 0.6c-0.6 0.98-1.43 1.65-2.5 2 -0.51 0.04-1.07-0.44-1.65-1.43 -0.04-0.12 0.18-0.45 0.66-1 0.2-0.19 0.34-0.37 0.42-0.53 -0.08-0.24-0.33-0.42-0.77-0.54 -0.32-0.16-0.45-0.38-0.41-0.65 -0.43-1.31 0.17-2.29 1.8-2.95 0.87-0.15 1.4 0.07 1.6 0.66 0.11 0.75-0.07 1.6-0.55 2.55C400.11 538.44 400.38 538.87 399.9 539.42z"/></g></svg>